<svg width="69" height="79" viewBox="0 0 69 79" fill="none" xmlns="http://www.w3.org/2000/svg">
<path d="M62.2713 78.9994C60.7024 78.9994 59.2303 78.3319 58.1241 77.1167L42.9401 60.4991C37.1188 62.2207 31.02 62.2207 25.1987 60.4991L10.0147 77.1167C8.90852 78.3319 7.43218 78.9994 5.86751 78.9994C4.30284 78.9994 2.8265 78.3319 1.71609 77.1167C0.609884 75.9014 0 74.2903 0 72.5733C0 70.8563 0.609884 69.2452 1.72029 68.0346L13.9979 54.5979C12.6183 53.4885 11.3186 52.264 10.1073 50.9429C3.71819 43.9461 0.197687 34.6338 0.197687 24.7139C0.197687 16.6675 2.62461 8.72703 7.0326 2.3516C7.97897 0.984456 9.42166 0.128261 10.9905 0.0131817C12.572 -0.106501 14.1241 0.528739 15.2471 1.75779C17.1651 3.85685 17.3838 7.22178 15.756 9.57862C8.55941 19.9956 9.80021 34.4957 18.6414 43.3016C19.6383 44.2913 20.7192 45.1889 21.8675 45.9761L30.3891 36.65C32.4164 34.4313 35.7182 34.4313 37.7455 36.65L46.2671 45.9761C47.4196 45.1889 48.5047 44.2867 49.4974 43.297C58.3344 34.4865 59.5752 19.991 52.3785 9.57862C50.7508 7.22178 50.9653 3.85685 52.8875 1.75779C54.0105 0.528739 55.5668 -0.111105 57.1441 0.0131817C58.7129 0.132865 60.1556 0.984456 61.102 2.3516C71.2471 17.0266 69.9264 37.9159 58.0273 50.9383C56.8202 52.2594 55.5163 53.4839 54.1367 54.5932L66.4143 68.03C68.7024 70.5341 68.7024 74.6079 66.4143 77.1121C65.3165 78.3273 63.8402 78.9994 62.2713 78.9994ZM11.3691 3.33669C11.3144 3.33669 11.2555 3.33669 11.2008 3.34129C10.4984 3.39193 9.88433 3.75558 9.46372 4.3632C5.45531 10.1632 3.24711 17.3902 3.24711 24.7139C3.24711 33.7408 6.44795 42.2153 12.265 48.5815C13.7624 50.2202 15.4238 51.6978 17.1987 52.9683L18.7676 54.0915L3.87382 70.3914C2.77603 71.5928 2.77603 73.5538 3.87382 74.7552C4.40799 75.3398 5.11462 75.6575 5.86751 75.6575C6.6204 75.6575 7.32702 75.3352 7.8612 74.7552L24.3197 56.7429L25.1903 57.0283C30.9989 58.9295 37.1399 58.9295 42.9485 57.0283L43.8191 56.7429L60.2776 74.7552C61.3754 75.9567 63.1672 75.9567 64.265 74.7552C65.3628 73.5538 65.3628 71.5928 64.265 70.3914L49.3712 54.0915L50.9401 52.9683C52.715 51.6978 54.3764 50.2202 55.8738 48.5815C66.7045 36.7283 67.9075 17.7217 58.6751 4.3678C58.2545 3.76018 57.6362 3.39653 56.938 3.34589C56.2313 3.29526 55.5457 3.57605 55.0452 4.11923C54.1956 5.04908 54.0946 6.5313 54.8139 7.57163C62.9653 19.3696 61.5647 35.7892 51.5542 45.7689C50.1073 47.2143 48.4963 48.4802 46.7718 49.5343L45.7666 50.1466L35.5962 39.0114C34.755 38.0908 33.388 38.0908 32.5468 39.0114L22.3764 50.1466L21.3712 49.5343C19.6467 48.4802 18.04 47.2143 16.5931 45.7735C6.57413 35.7938 5.1735 19.3696 13.3249 7.56702C14.0442 6.5313 13.9432 5.04447 13.0936 4.11463C12.6351 3.61748 12.0168 3.33669 11.3691 3.33669ZM34.0694 53.1248C33.1399 53.1248 32.2061 53.0696 31.285 52.9637L28.1136 52.5955L34.0694 46.0727L40.0252 52.5955L36.8538 52.9637C35.9327 53.0696 35.0032 53.1248 34.0694 53.1248Z" fill="#2E2C3E"/>
</svg>
